<svg width="43" height="44" viewBox="0 0 43 44" fill="none" xmlns="http://www.w3.org/2000/svg">
<path d="M8.05488 0.52172C7.93356 0.528613 7.80993 0.560047 7.68595 0.620341L5.20221 2.23799L6.16729 4.22144L8.97289 3.2651C10.1714 2.68201 9.22675 0.455268 8.05488 0.52172ZM18.2503 0.52172C17.0784 0.455268 16.1338 2.68201 17.3323 3.2651L20.1379 4.22144L21.1029 2.23799L18.6192 0.620341C18.4951 0.560047 18.3715 0.528522 18.2503 0.52172ZM3.95911 3.11391L0.560669 4.81308V5.32439C0.560669 9.22144 2.06756 14.4202 4.33089 18.7586C5.46278 20.9277 6.78429 22.8756 8.25277 24.3196C9.49339 25.5396 10.864 26.4256 12.3335 26.6712C12.4481 32.645 13.9199 36.8396 16.1962 39.5429C18.5679 42.3592 21.8049 43.48 24.9689 43.2823C29.9056 42.9737 34.772 39.5858 36.6731 34.736C36.0916 34.7352 35.5122 34.6651 34.9473 34.5273C33.1553 38.5428 28.978 41.3742 24.8658 41.6312C22.1473 41.8012 19.5018 40.8998 17.4619 38.4773C15.5071 36.156 14.1025 32.3652 13.9882 26.6682C15.4515 26.4189 16.8164 25.535 18.0526 24.3197C19.5209 22.8758 20.8424 20.9279 21.9742 18.7588C24.2375 14.4203 25.7444 9.22163 25.7444 5.32457V4.81308L22.346 3.11382L21.6061 4.5936L24.0659 5.82374C23.9424 9.2594 22.5576 14.0636 20.5074 17.9931C19.4334 20.0518 18.1814 21.8723 16.8925 23.1397C15.6036 24.4072 14.313 25.0853 13.1526 25.0853C11.9922 25.0853 10.7017 24.4072 9.41269 23.1397C8.12372 21.8723 6.87179 20.0518 5.7978 17.993C3.74743 14.0634 2.36269 9.2595 2.23916 5.82365L4.699 4.5936L3.95911 3.11391ZM36.682 21.6846C33.525 21.6846 30.9835 24.2261 30.9835 27.3831C30.9835 30.5403 33.525 33.0816 36.682 33.0816C39.839 33.0816 42.3805 30.5403 42.3805 27.3831C42.3805 24.2261 39.839 21.6846 36.682 21.6846ZM36.682 24.4419C38.2966 24.4419 39.6232 25.7686 39.6232 27.3831C39.6232 28.9976 38.2966 30.3243 36.682 30.3243C35.0674 30.3243 33.7408 28.9977 33.7408 27.3831C33.7408 25.7686 35.0674 24.4419 36.682 24.4419ZM36.682 26.0964C35.9614 26.0964 35.3952 26.6627 35.3952 27.3831C35.3952 28.1037 35.9614 28.6699 36.682 28.6699C37.4026 28.6699 37.9688 28.1037 37.9688 27.3831C37.9688 26.6627 37.4026 26.0964 36.682 26.0964Z" fill="#14AE5C"/>
</svg>
