<svg width="33" height="44" viewBox="0 0 33 44" fill="none" xmlns="http://www.w3.org/2000/svg">
<path d="M16.9622 8.63518C16.9243 8.55274 16.8636 8.48291 16.7872 8.43395C16.7108 8.385 16.622 8.35898 16.5312 8.35898C16.4405 8.35898 16.3517 8.385 16.2753 8.43395C16.1989 8.48291 16.1382 8.55274 16.1003 8.63518L14.1595 12.8447C14.1244 12.9173 14.0718 12.98 14.0066 13.0273C13.9413 13.0746 13.8653 13.105 13.7854 13.1158L9.18012 13.6633C9.09032 13.6742 9.0055 13.7105 8.93567 13.768C8.86583 13.8255 8.8139 13.9018 8.78598 13.9878C8.75805 14.0739 8.75532 14.1661 8.77809 14.2536C8.80086 14.3412 8.84818 14.4204 8.91448 14.4819L12.319 17.6289C12.3778 17.6848 12.4217 17.7545 12.4468 17.8316C12.4719 17.9088 12.4773 17.991 12.4626 18.0707L11.5573 22.6164C11.5396 22.7053 11.5477 22.7974 11.5807 22.8818C11.6136 22.9662 11.6701 23.0394 11.7434 23.0928C11.8167 23.1461 11.9037 23.1773 11.9942 23.1827C12.0847 23.1881 12.1748 23.1675 12.2539 23.1233L16.3008 20.8599C16.3717 20.822 16.4508 20.8021 16.5312 20.8021C16.6116 20.8021 16.6908 20.822 16.7616 20.8599L20.8085 23.1233C21.1609 23.3211 21.5838 23.0148 21.5052 22.6164L20.6025 18.0707C20.5879 17.991 20.5933 17.9088 20.6184 17.8316C20.6435 17.7545 20.6874 17.6848 20.7462 17.6289L24.148 14.4819C24.2143 14.4204 24.2616 14.3412 24.2844 14.2536C24.3072 14.1661 24.3044 14.0739 24.2765 13.9878C24.2486 13.9018 24.1966 13.8255 24.1268 13.768C24.057 13.7105 23.9722 13.6742 23.8824 13.6633L19.2798 13.1158C19.1994 13.1054 19.1229 13.0752 19.0571 13.0279C18.9913 12.9806 18.9384 12.9176 18.903 12.8447L16.9622 8.63518ZM32.7812 16.4905C32.7812 18.7786 32.2983 21.041 31.3641 23.1298C30.4299 25.2186 29.0655 27.0868 27.36 28.6122V42.241C27.36 42.4784 27.2976 42.7115 27.1791 42.9172C27.0606 43.1228 26.8902 43.2938 26.6849 43.4129C26.4796 43.532 26.2467 43.5951 26.0093 43.5959C25.772 43.5967 25.5386 43.5352 25.3325 43.4174L16.5177 38.3812L7.70285 43.4174C7.49677 43.5352 7.26338 43.5967 7.02605 43.5959C6.78871 43.5951 6.55575 43.532 6.35046 43.4129C6.14518 43.2938 5.97477 43.1228 5.85629 42.9172C5.73781 42.7115 5.67541 42.4784 5.67533 42.241V28.6122C3.65327 26.8036 2.11575 24.518 1.20278 21.9633C0.289807 19.4087 0.030383 16.6662 0.448131 13.9857C0.865879 11.3052 1.94753 8.77176 3.59458 6.61609C5.24164 4.46043 7.40178 2.75102 9.87829 1.64352C12.3548 0.536018 15.069 0.0656173 17.7738 0.275148C20.4786 0.484678 23.088 1.36748 25.3644 2.84318C27.6408 4.31887 29.5119 6.34057 30.8073 8.72418C32.1027 11.1078 32.7813 13.7776 32.7812 16.4905ZM16.5177 32.754C13.663 32.7547 10.8585 32.004 8.38592 30.5774V39.9072L15.8455 35.6435C16.0502 35.5265 16.2819 35.465 16.5177 35.465C16.7535 35.465 16.9852 35.5265 17.1899 35.6435L24.6494 39.9099V30.5801C22.1766 32.0058 19.3721 32.7555 16.5177 32.754ZM16.5177 30.0434C20.1121 30.0434 23.5594 28.6155 26.1011 26.0738C28.6427 23.5322 30.0706 20.0849 30.0706 16.4905C30.0706 12.896 28.6427 9.44876 26.1011 6.90709C23.5594 4.36542 20.1121 2.93752 16.5177 2.93752C12.9232 2.93752 9.47598 4.36542 6.93431 6.90709C4.39264 9.44876 2.96474 12.896 2.96474 16.4905C2.96474 20.0849 4.39264 23.5322 6.93431 26.0738C9.47598 28.6155 12.9232 30.0434 16.5177 30.0434Z" fill="#14AE5C"/>
</svg>
