<svg width="24" height="24" viewBox="0 0 24 24" fill="none" xmlns="http://www.w3.org/2000/svg">
<path d="M11 10C13.2091 10 15 8.20914 15 6C15 3.79086 13.2091 2 11 2C8.79086 2 7 3.79086 7 6C7 8.20914 8.79086 10 11 10Z" stroke="black" stroke-width="1.5"/>
<path d="M17 10.3L18.333 11.5L21 8.5" stroke="black" stroke-width="1.5" stroke-linecap="round" stroke-linejoin="round"/>
<path d="M18.998 18C18.9993 17.836 19 17.6693 19 17.5C19 15.015 15.418 13 11 13C6.582 13 3 15.015 3 17.5C3 19.985 3 22 11 22C13.231 22 14.84 21.843 16 21.563" stroke="black" stroke-width="1.5" stroke-linecap="round"/>
</svg>
