<svg width="29" height="26" viewBox="0 0 29 26" fill="none" xmlns="http://www.w3.org/2000/svg">
<path d="M11.1669 18.3197L22.8322 22.4923C23.0282 22.5627 23.2374 22.5885 23.4447 22.5677C23.6519 22.5468 23.8518 22.48 24.0299 22.3719C24.2079 22.2639 24.3596 22.1175 24.4738 21.9433C24.5879 21.7691 24.6618 21.5717 24.6898 21.3653L27.0696 3.37631C27.2145 2.28106 26.0798 1.46408 25.0786 1.94055L2.4634 12.7355C1.34529 13.2691 1.42915 14.8828 2.59809 15.2982L5.69832 16.4011L7.38821 16.9945M15.647 19.9206L13.1186 24.1466C12.2927 25.1733 10.6295 24.5926 10.6295 23.2788V19.8952C10.6295 19.2567 10.8699 18.6416 11.3029 18.1723L16.2213 12.8358" stroke="black" stroke-width="2.54118" stroke-linecap="round" stroke-linejoin="round"/>
</svg>
