<svg width="44" height="41" viewBox="0 0 44 41" fill="none" xmlns="http://www.w3.org/2000/svg">
<path d="M12.2707 1.30005C6.34578 1.30005 1.54126 6.40499 1.54126 12.7003C1.54126 25.3 21.8707 39.7 21.8707 39.7C21.8707 39.7 42.2001 25.3 42.2001 12.7003C42.2001 4.90061 37.3956 1.30005 31.4707 1.30005C27.2693 1.30005 23.6326 3.86607 21.8707 7.60217C20.1088 3.86607 16.4721 1.30005 12.2707 1.30005Z" stroke="#14AE5C" stroke-width="2.25882" stroke-linecap="round" stroke-linejoin="round"/>
<path d="M28.6472 28.406C28.6472 19.6847 15.0942 19.6847 15.0942 28.406" stroke="#14AE5C" stroke-width="2.25882" stroke-linecap="round" stroke-linejoin="round"/>
<path d="M21.8706 21.6295C23.0687 21.6295 24.2178 21.1536 25.065 20.3063C25.9122 19.4591 26.3882 18.31 26.3882 17.1119C26.3882 15.9137 25.9122 14.7647 25.065 13.9174C24.2178 13.0702 23.0687 12.5942 21.8706 12.5942C20.6724 12.5942 19.5233 13.0702 18.6761 13.9174C17.8289 14.7647 17.3529 15.9137 17.3529 17.1119C17.3529 18.31 17.8289 19.4591 18.6761 20.3063C19.5233 21.1536 20.6724 21.6295 21.8706 21.6295Z" stroke="#14AE5C" stroke-width="2.25882" stroke-linecap="round" stroke-linejoin="round"/>
</svg>
